<svg xmlns="http://www.w3.org/2000/svg" viewBox="171.261 174.996 157.477 150.008" width="157.477" height="150.008" xmlns:v="https://vecta.io/nano"><path fill="#f4c01e" d="M250 174.996l20.277 45.664c.781 1.754 2.008 3.273 3.559 4.398s3.367 1.829 5.273 2.032l49.629 5.203-37.094 33.429c-1.426 1.286-2.488 2.922-3.078 4.747s-.695 3.777-.297 5.652l10.395 48.883L255.457 300a10.88 10.88 0 0 0-5.457-1.465c-1.918 0-3.801.504-5.461 1.465l-43.203 25.004 10.394-48.883c.399-1.875.297-3.828-.297-5.652s-1.652-3.461-3.078-4.747l-37.094-33.429 49.625-5.203c1.907-.203 3.727-.903 5.278-2.032s2.777-2.644 3.558-4.398L250 174.996zm0 0" fill-rule="evenodd"/><path d="M251.172 280.389c-3.133 0-6.091-.526-8.869-1.576-2.771-1.059-5.231-2.552-7.373-4.474a20.84 20.84 0 0 1-5.031-6.847c-1.211-2.644-1.815-5.557-1.815-8.741 0-3.13.604-6.083 1.815-8.854 1.217-2.778 2.929-5.238 5.127-7.373 2.205-2.142 4.825-3.841 7.85-5.095 3.025-1.261 6.362-1.895 10.015-1.895.836 0 1.871.081 3.105.239 1.242.151 2.52.334 3.838.558 1.326.222 2.551.47 3.678.732s1.994.534 2.611.796a2.05 2.05 0 0 1 .733.494c.179.191.29.469.335.828a76.69 76.69 0 0 1 .525 4.171c.135 1.318.206 2.461.206 3.424 0 .362-.102.677-.301.94s-.459.397-.765.397c-.49 0-.844-.162-1.067-.493a8.78 8.78 0 0 1-.588-1.099c-.351-.797-.75-1.576-1.195-2.34-.438-.773-.984-1.516-1.64-2.23-.446-.433-1.06-.907-1.832-1.417-.764-.509-1.747-.939-2.945-1.289-1.19-.351-2.644-.527-4.363-.527-2.42 0-4.602.494-6.544 1.482a13.94 13.94 0 0 0-4.905 4.14c-1.318 1.764-2.333 3.758-3.041 5.987-.701 2.229-1.05 4.554-1.05 6.974 0 3.05.349 5.796 1.05 8.249.708 2.443 1.704 4.533 2.978 6.273 1.282 1.744 2.807 3.08 4.57 4.012 1.759.924 3.746 1.386 5.955 1.386 1.581 0 2.822-.232 3.725-.701.913-.466 1.565-.876 1.959-1.226.486-.391.884-.988 1.195-1.784s.481-1.719.525-2.77c0-.402.008-.911.032-1.529l.063-1.847c.032-.625.048-1.134.048-1.528 0-.486-.08-.916-.238-1.291-.16-.369-.459-.668-.892-.891-.407-.307-.916-.581-1.528-.827-.618-.244-1.243-.419-1.88-.527a24.27 24.27 0 0 0-1.56-.238c-.311-.04-.637-.183-.987-.43s-.527-.541-.527-.891.164-.61.495-.781c.326-.18.624-.27.892-.27 1.019 0 2.061.024 3.136.063l3.248.127a77.2 77.2 0 0 0 3.137.065c1.242 0 2.468-.041 3.678-.128a54.03 54.03 0 0 1 3.742-.127c.263 0 .541.08.828.238.286.151.43.423.43.813 0 .35-.159.637-.478.86-.31.222-.598.358-.859.397-1.19.311-1.999.708-2.42 1.194-.415.49-.685 1.174-.812 2.055a25.46 25.46 0 0 0-.367 2.579c-.064.744-.095 1.537-.095 2.372v2.055c0 .222.072.426.222.604a8.11 8.11 0 0 1 .494.59c.178.223.342.446.493.669.16.215.239.43.239.652 0 .267-.079.542-.239.828-.151.287-.469.474-.954.558-.311.044-.905.286-1.783.733-.885.445-1.999.946-3.345 1.496-1.337.542-2.906 1.011-4.697 1.401-1.783.403-3.782.605-5.987.605zm0 0" fill="#fff"/></svg>