<?xml version="1.0" encoding="UTF-8" standalone="no"?>
<svg
   viewBox="0 0 150 150"
   version="1.1"
   width="32"
   height="32"
   xmlns:inkscape="http://www.inkscape.org/namespaces/inkscape"
   xmlns:sodipodi="http://sodipodi.sourceforge.net/DTD/sodipodi-0.dtd"
   xmlns="http://www.w3.org/2000/svg"
   xmlns:svg="http://www.w3.org/2000/svg">
  <path
     fill="#f4c01e"
     d="m 75,0 19.315,45.664 a 10.828,10.828 0 0 0 3.39,4.398 10.152,10.152 0 0 0 5.022,2.032 L 150,57.297 114.667,90.726 a 10.984,10.984 0 0 0 -2.932,4.747 11.505,11.505 0 0 0 -0.283,5.652 l 9.902,48.883 -41.156,-25.004 A 9.989,9.989 0 0 0 75,123.539 c -1.826,0 -3.62,0.504 -5.201,1.465 l -41.152,25.004 9.901,-48.883 c 0.77,-3.82 -0.455,-7.782 -3.215,-10.399 L 0,57.297 47.269,52.094 c 3.697,-0.412 6.906,-2.863 8.416,-6.43 z m 0,0"
     fill-rule="evenodd"/>
  <path
     d="m 76.117,105.393 c -2.984,0 -5.802,-0.526 -8.448,-1.576 a 22.204,22.204 0 0 1 -7.023,-4.474 20.795,20.795 0 0 1 -4.792,-6.847 c -1.154,-2.644 -1.729,-5.557 -1.729,-8.741 0,-3.13 0.575,-6.083 1.729,-8.854 a 23.19,23.19 0 0 1 4.883,-7.373 c 2.101,-2.142 4.596,-3.841 7.478,-5.095 2.881,-1.261 6.06,-1.895 9.539,-1.895 0.797,0 1.782,0.081 2.958,0.239 1.183,0.151 2.4,0.334 3.656,0.558 a 54.8,54.8 0 0 1 3.503,0.732 c 1.073,0.262 1.899,0.534 2.487,0.796 0.264,0.109 0.502,0.278 0.698,0.494 0.171,0.191 0.276,0.469 0.319,0.828 a 79.86,79.86 0 0 1 0.5,4.171 c 0.129,1.318 0.197,2.461 0.197,3.424 0,0.362 -0.098,0.677 -0.287,0.94 -0.19,0.263 -0.437,0.397 -0.729,0.397 -0.467,0 -0.804,-0.162 -1.016,-0.493 a 8.867,8.867 0 0 1 -0.56,-1.099 23.727,23.727 0 0 0 -1.139,-2.34 12.127,12.127 0 0 0 -1.562,-2.23 c -0.424,-0.433 -1.009,-0.907 -1.745,-1.417 -0.727,-0.509 -1.664,-0.939 -2.805,-1.289 -1.133,-0.351 -2.518,-0.527 -4.156,-0.527 -2.305,0 -4.383,0.494 -6.233,1.482 a 13.47,13.47 0 0 0 -4.672,4.14 c -1.256,1.764 -2.222,3.758 -2.897,5.987 a 24.197,24.197 0 0 0 -1,6.974 c 0,3.05 0.333,5.796 1,8.249 0.675,2.443 1.623,4.533 2.837,6.273 1.221,1.744 2.674,3.08 4.353,4.012 1.675,0.924 3.568,1.386 5.672,1.386 1.506,0 2.688,-0.232 3.548,-0.701 0.87,-0.466 1.491,-0.876 1.866,-1.226 0.463,-0.391 0.842,-0.988 1.139,-1.784 0.296,-0.796 0.458,-1.719 0.5,-2.77 0,-0.402 0.007,-0.911 0.03,-1.529 l 0.06,-1.847 c 0.031,-0.625 0.046,-1.134 0.046,-1.528 A 3.46,3.46 0 0 0 84.095,89.549 C 83.943,89.18 83.658,88.881 83.245,88.658 82.858,88.351 82.373,88.077 81.79,87.831 a 8.596,8.596 0 0 0 -1.791,-0.527 21.876,21.876 0 0 0 -1.486,-0.238 c -0.296,-0.04 -0.606,-0.183 -0.94,-0.43 -0.333,-0.247 -0.502,-0.541 -0.502,-0.891 0,-0.35 0.156,-0.61 0.472,-0.781 0.31,-0.18 0.594,-0.27 0.849,-0.27 0.971,0 1.964,0.024 2.987,0.063 l 3.094,0.127 c 0.996,0.043 1.992,0.065 2.988,0.065 1.183,0 2.351,-0.041 3.504,-0.128 a 48.696,48.696 0 0 1 3.564,-0.127 c 0.251,0 0.515,0.08 0.789,0.238 0.272,0.151 0.409,0.423 0.409,0.813 0,0.35 -0.151,0.637 -0.455,0.86 -0.295,0.222 -0.57,0.358 -0.818,0.397 -1.134,0.311 -1.904,0.708 -2.305,1.194 -0.396,0.49 -0.653,1.174 -0.774,2.055 a 26.624,26.624 0 0 0 -0.349,2.579 c -0.063,0.789 -0.093,1.58 -0.091,2.372 v 2.055 c 0,0.222 0.069,0.426 0.212,0.604 0.165,0.189 0.323,0.386 0.47,0.59 0.17,0.223 0.326,0.446 0.47,0.669 0.152,0.215 0.227,0.43 0.227,0.652 0,0.267 -0.075,0.542 -0.227,0.828 -0.144,0.287 -0.447,0.474 -0.909,0.558 -0.296,0.044 -0.862,0.286 -1.698,0.733 a 44.993,44.993 0 0 1 -3.186,1.496 c -1.274,0.542 -2.768,1.011 -4.474,1.401 -1.699,0.403 -3.603,0.605 -5.703,0.605 z m 0,0"
     fill="#ffffff"/>
</svg>
